<?xml version="1.0" standalone="no"?>
<!DOCTYPE svg PUBLIC "-//W3C//DTD SVG 20010904//EN"
 "http://www.w3.org/TR/2001/REC-SVG-20010904/DTD/svg10.dtd">
<svg version="1.0" xmlns="http://www.w3.org/2000/svg"
 width="1164.000000pt" height="377.000000pt" viewBox="0 0 1164.000000 377.000000"
 preserveAspectRatio="xMidYMid meet">

<g transform="translate(0.000000,377.000000) scale(0.100000,-0.100000)"
fill="#000000" stroke="none">
<path d="M3547 3235 c-96 -110 -297 -266 -477 -373 -19 -11 -177 -92 -351
-180 -174 -88 -328 -168 -342 -178 -33 -25 -87 -104 -114 -168 -12 -28 -27
-51 -34 -51 -28 0 -59 77 -59 145 0 90 -27 135 -100 172 -41 20 -70 28 -112
28 -31 0 -59 -4 -62 -9 -4 -5 -30 -14 -58 -21 -48 -10 -88 -33 -88 -50 0 -4
21 -10 47 -14 65 -9 93 -37 93 -93 0 -24 -6 -59 -14 -77 -21 -51 -83 -92 -132
-87 -5 0 -18 25 -29 54 -20 59 -71 134 -116 172 -17 14 -167 92 -332 173 -325
160 -493 256 -621 356 -85 67 -210 185 -239 226 -39 56 -27 -22 19 -127 8 -17
14 -34 14 -37 0 -22 85 -179 111 -205 69 -69 95 -84 514 -286 527 -255 597
-289 587 -293 -6 -2 -34 7 -64 19 -72 29 -238 98 -263 109 -11 5 -72 31 -135
58 -155 67 -246 110 -430 200 -85 42 -158 78 -162 80 -5 2 -8 0 -8 -5 0 -14
168 -264 202 -301 67 -72 113 -83 690 -161 70 -9 130 -20 134 -24 10 -10 -113
-8 -211 3 -44 5 -141 14 -215 21 -74 6 -170 17 -212 23 -62 10 -78 10 -78 0 0
-6 6 -14 14 -17 7 -3 52 -34 100 -69 118 -85 156 -108 188 -108 27 0 170 33
298 69 144 41 152 36 34 -23 -117 -59 -208 -133 -219 -179 -9 -34 15 -80 72
-142 25 -27 63 -69 84 -91 20 -23 41 -44 46 -47 5 -3 6 28 1 71 -12 126 9 219
70 310 35 52 110 132 123 132 8 0 -46 -109 -71 -145 -4 -5 -19 -45 -34 -89
-42 -125 -32 -198 32 -261 17 -16 32 -35 32 -42 0 -27 -185 -193 -216 -193 -7
0 -14 -4 -16 -9 -1 -4 -28 -22 -58 -39 l-55 -32 85 0 c91 0 141 17 190 62 24
22 84 108 110 157 11 21 13 22 28 8 14 -15 13 -20 -9 -64 -33 -65 -111 -167
-167 -219 l-47 -43 35 0 c39 -1 105 27 135 56 23 22 67 116 86 183 7 25 14 47
15 48 2 2 34 -21 73 -52 38 -31 72 -56 74 -56 3 0 -19 48 -49 106 -30 58 -54
114 -54 124 0 10 -4 21 -9 24 -5 3 -11 16 -14 28 -2 13 -14 59 -26 102 -22 79
-44 309 -32 333 4 7 19 -22 35 -65 15 -42 32 -86 36 -97 5 -11 18 -47 29 -80
11 -34 25 -74 32 -90 19 -49 26 -68 44 -120 9 -27 20 -59 25 -70 5 -11 14 -35
22 -53 7 -17 17 -31 21 -29 4 1 23 47 42 102 19 55 39 109 44 120 5 11 26 70
46 130 72 212 97 271 106 248 8 -22 -10 -208 -30 -316 -6 -31 -23 -88 -36
-125 -35 -93 -41 -107 -99 -216 -14 -27 -24 -51 -22 -53 2 -3 39 23 82 56 43
34 82 60 88 58 6 -2 12 -17 14 -33 6 -58 57 -168 94 -206 36 -36 88 -58 138
-58 22 0 17 7 -42 68 -67 67 -168 219 -168 253 0 9 7 19 15 23 10 4 23 -11 42
-52 37 -75 125 -164 179 -180 23 -7 77 -12 120 -12 l79 1 -71 37 c-93 50 -157
97 -227 170 -54 57 -70 93 -47 107 6 4 22 30 35 58 25 52 32 113 16 145 -5 9
-14 35 -21 57 -14 45 -73 166 -101 207 -23 31 -23 38 -5 38 17 0 90 -80 131
-145 49 -78 60 -126 60 -262 0 -128 2 -131 45 -78 13 16 48 55 75 85 90 97
103 136 66 196 -24 40 -137 115 -249 166 -72 32 -80 38 -47 33 22 -3 63 -12
90 -20 216 -62 307 -85 330 -85 24 0 93 26 105 40 6 6 105 79 140 102 14 10
36 26 50 38 l25 21 -55 -4 c-30 -3 -118 -12 -195 -21 -257 -31 -309 -36 -400
-36 -113 1 -95 14 40 30 55 6 120 15 145 21 25 5 101 16 170 24 210 24 272 36
320 60 59 30 88 63 185 211 43 65 82 121 86 122 9 4 13 32 5 32 -3 0 -71 -33
-153 -74 -228 -113 -470 -221 -748 -333 -60 -25 -116 -47 -124 -50 -10 -4 -12
-2 -7 6 5 7 81 48 170 91 88 43 264 128 389 189 126 61 230 111 233 111 2 0
48 21 101 47 157 76 227 156 291 333 11 30 32 85 46 123 14 37 22 67 18 67 -4
0 -29 -25 -55 -55z m-1582 -655 c16 -7 13 -9 -17 -9 -21 -1 -38 4 -38 9 0 12
27 12 55 0z"/>
<path d="M3650 1865 l0 -94 72 -3 72 -3 158 -225 157 -225 0 -157 1 -158 -80
0 -80 0 0 -100 0 -100 310 0 310 0 0 100 0 100 -80 0 -80 0 0 154 0 154 151
231 152 231 68 0 69 0 0 95 0 95 -255 0 -255 0 0 -95 0 -95 43 0 c78 0 78 -5
-9 -149 -43 -72 -81 -131 -84 -131 -5 0 -160 254 -160 263 0 2 23 7 50 11 l50
7 0 94 0 95 -290 0 -290 0 0 -95z"/>
<path d="M7285 1624 c-11 -2 -45 -9 -75 -15 -30 -6 -76 -22 -101 -35 -46 -23
-129 -106 -129 -128 0 -7 42 -19 100 -29 l101 -17 36 27 c28 21 49 28 98 31
74 5 116 -13 145 -61 18 -29 29 -117 14 -117 -3 0 -34 7 -68 16 -80 21 -204
15 -267 -13 -103 -46 -169 -140 -169 -241 0 -96 48 -169 145 -220 44 -23 62
-26 145 -27 87 0 100 3 158 32 l62 31 0 -29 0 -29 195 0 195 0 0 95 0 95 -64
0 -64 0 -4 218 c-3 209 -4 219 -28 266 -50 97 -143 143 -307 150 -54 3 -107 3
-118 0z m150 -497 c35 -20 40 -27 43 -62 3 -38 0 -42 -48 -74 -34 -24 -65 -35
-99 -39 -46 -4 -53 -2 -81 26 -24 25 -30 39 -30 74 0 97 107 134 215 75z"/>
<path d="M9245 1624 c-107 -21 -136 -30 -176 -50 -46 -23 -129 -106 -129 -128
0 -7 42 -19 100 -29 l101 -17 36 27 c28 21 49 28 98 31 74 5 116 -13 145 -61
18 -29 29 -117 14 -117 -3 0 -34 7 -68 16 -80 21 -204 15 -267 -13 -103 -46
-169 -140 -169 -241 0 -96 48 -169 145 -220 44 -23 62 -26 145 -27 87 0 100 3
158 32 l62 31 0 -29 0 -29 195 0 195 0 0 95 0 95 -65 0 -65 0 0 190 c0 104 -5
212 -11 240 -15 69 -62 128 -128 161 -74 37 -234 59 -316 43z m144 -496 c42
-21 46 -26 49 -63 3 -38 0 -42 -48 -74 -34 -24 -65 -35 -99 -39 -46 -4 -53 -2
-81 26 -24 25 -30 39 -30 75 0 98 94 132 209 75z"/>
<path d="M11037 1620 c-114 -21 -231 -103 -291 -204 -67 -115 -75 -294 -17
-410 40 -82 120 -157 198 -186 86 -32 199 -45 285 -33 119 17 183 47 257 119
41 40 62 67 56 73 -6 5 -49 21 -97 36 l-87 26 -62 -43 c-58 -41 -64 -43 -134
-43 -65 0 -78 3 -116 30 -44 31 -73 77 -83 133 l-5 32 302 0 303 0 -8 79 c-23
237 -163 381 -387 396 -37 2 -88 0 -114 -5z m150 -179 c44 -20 93 -88 93 -129
0 -22 -3 -22 -165 -22 -159 0 -165 1 -165 20 0 27 32 90 58 113 43 39 116 46
179 18z"/>
<path d="M8260 1605 c-206 -58 -328 -253 -292 -469 37 -223 198 -349 447 -350
125 0 193 19 271 77 61 45 136 150 118 166 -5 4 -48 25 -97 46 l-87 38 -36
-42 c-94 -110 -252 -113 -322 -8 -35 53 -44 174 -17 243 53 139 261 145 345 9
l22 -35 89 0 89 0 0 165 0 165 -85 0 -85 0 0 -31 c0 -21 -4 -29 -12 -26 -153
67 -243 81 -348 52z"/>
<path d="M10465 1600 c-60 -23 -131 -89 -156 -145 l-19 -40 0 98 0 97 -190 0
-190 0 0 -95 0 -95 70 0 70 0 0 -215 0 -215 -75 0 -75 0 0 -95 0 -95 285 0
285 0 0 95 0 95 -81 0 -81 0 4 98 c5 113 31 185 83 231 38 33 76 47 158 56
l57 6 0 120 0 119 -47 -1 c-27 0 -70 -9 -98 -19z"/>
<path d="M4880 1515 l0 -95 60 0 60 0 0 -182 c0 -291 21 -362 120 -418 39 -22
58 -25 136 -25 83 0 96 3 162 36 l72 35 0 -33 0 -33 195 0 195 0 0 95 0 95
-65 0 -65 0 0 310 0 310 -195 0 -195 0 0 -95 0 -95 65 0 65 0 0 -178 c0 -200
0 -200 -77 -228 -59 -21 -100 -18 -128 11 l-25 24 0 281 0 280 -190 0 -190 0
0 -95z"/>
<path d="M5920 1515 l0 -95 58 0 57 0 135 -315 135 -315 110 0 111 0 129 315
130 315 58 0 57 0 0 95 0 95 -215 0 -215 0 0 -95 0 -95 54 0 54 0 -71 -179
c-40 -99 -73 -178 -75 -177 -3 4 -122 345 -122 352 0 2 23 4 50 4 l50 0 0 95
0 95 -245 0 -245 0 0 -95z"/>
<path d="M1830 1542 c0 -5 7 -17 15 -28 25 -33 19 -104 -13 -155 -41 -63 -137
-147 -242 -209 -50 -30 -93 -57 -95 -60 -2 -3 35 -4 83 -2 102 4 157 26 196
77 14 18 32 39 39 47 7 7 16 20 20 28 4 8 11 22 16 30 9 14 24 50 51 117 10
27 9 39 -5 77 -15 39 -65 99 -65 78z"/>
<path d="M2109 1513 c-45 -56 -49 -89 -19 -160 52 -123 108 -199 178 -240 41
-24 57 -28 134 -28 49 0 88 2 88 5 0 3 -28 20 -62 38 -80 41 -93 49 -152 97
-56 45 -125 117 -143 149 -15 25 -17 136 -3 136 6 0 10 5 10 10 0 16 -15 12
-31 -7z"/>
<path d="M1892 1261 c-58 -112 -88 -155 -155 -218 -30 -29 -53 -54 -51 -56 11
-11 102 16 136 39 58 40 122 193 116 276 l-3 43 -43 -84z"/>
<path d="M2041 1295 c-1 -94 49 -219 105 -261 36 -28 121 -57 136 -48 6 4 -19
36 -55 73 -75 76 -117 137 -157 224 l-29 62 0 -50z"/>
<path d="M1976 1228 c-31 -106 -47 -205 -41 -246 7 -46 37 -102 55 -102 5 0
19 18 31 41 17 34 20 54 16 113 -2 39 -9 91 -16 116 -6 25 -13 55 -16 68 -6
24 -23 30 -29 10z"/>
</g>
</svg>
